<svg width="474" height="189" viewBox="0 0 474 189" fill="none" xmlns="http://www.w3.org/2000/svg">
<path d="M9.61073 151.16V115.763L66.6288 34.4453H112.358V114.424H126.134V151.16H112.358V172.207H69.4988V151.16H9.61073ZM72.9428 82.8532L52.2786 114.424H72.9428V82.8532Z" fill="#12263A"/>
<path d="M0.499512 151.16V115.763L57.5175 34.4453H103.247V114.424H117.023V151.16H103.247V172.207H60.3876V151.16H0.499512ZM63.8316 82.8532L43.1674 114.424H63.8316V82.8532Z" fill="#1D405D"/>
<path d="M356.977 151.16V115.763L413.995 34.4453H459.724V114.424H473.5V151.16H459.724V172.207H416.865V151.16H356.977ZM420.309 82.8532L399.645 114.424H420.309V82.8532Z" fill="#12263A"/>
<path d="M347.866 151.16V115.763L404.884 34.4453H450.613V114.424H464.389V151.16H450.613V172.207H407.754V151.16H347.866ZM411.198 82.8532L390.534 114.424H411.198V82.8532Z" fill="#1D405D"/>
<path d="M318 90.6859C318 146.523 260.099 183.316 201.987 183.316C143.875 183.316 161.518 123.93 161.518 68.0933C161.518 12.2563 196.486 0.315521 254.598 0.315521C312.71 0.315521 318 34.8489 318 90.6859Z" fill="#EFFEFD"/>
<ellipse cx="228.481" cy="181.902" rx="94.9565" ry="6.78261" fill="#06BCC1"/>
<path d="M167.525 79.5969C163.014 76.4259 161.261 70.5613 164.249 65.9275C166.519 62.4083 169.703 58.296 173.891 54.7051C178.976 50.3442 184.611 47.3314 188.997 45.4031C193.485 43.43 198.529 45.1824 201.461 49.1112L204.957 53.7949C205.358 54.332 205.713 54.9018 206.019 55.4982L208.592 60.5165C211.025 65.2627 210.034 71.0452 206.159 74.7099L195.194 85.0783C191.81 88.2783 186.881 89.2314 182.548 87.5232L175.344 84.6829C174.46 84.3345 173.621 83.8824 172.844 83.3362L167.525 79.5969Z" fill="#246CA5"/>
<path d="M177.39 77.2515C174.759 75.4017 173.734 71.9782 175.499 69.2889C176.751 67.381 178.477 65.1878 180.72 63.2639C183.47 60.9053 186.51 59.256 188.918 58.181C191.529 57.0153 194.472 58.0394 196.182 60.3312L197.977 62.7357C198.211 63.049 198.418 63.3814 198.596 63.7293L199.902 66.2763C201.322 69.0448 200.743 72.418 198.483 74.5557L192.717 80.0085C190.743 81.8751 187.867 82.4311 185.34 81.4346L181.564 79.9462C181.049 79.743 180.559 79.4793 180.106 79.1606L177.39 77.2515Z" fill="#93C3E6"/>
<path d="M310.758 77.3361C315.268 74.165 317.022 68.3005 314.033 63.6666C311.764 60.1475 308.579 56.0352 304.392 52.4443C299.307 48.0833 293.671 45.0706 289.285 43.1423C284.798 41.1691 279.753 42.9215 276.821 46.8503L273.325 51.5341C272.924 52.0712 272.569 52.6409 272.263 53.2373L269.69 58.2557C267.257 63.0018 268.248 68.7844 272.124 72.449L283.088 82.8174C286.472 86.0174 291.402 86.9705 295.734 85.2623L302.939 82.422C303.822 82.0736 304.661 81.6216 305.438 81.0753L310.758 77.3361Z" fill="#246CA5"/>
<path d="M300.892 74.9906C303.523 73.1408 304.548 69.7173 302.783 67.028C301.532 65.1201 299.806 62.9269 297.562 61.003C294.812 58.6444 291.772 56.9951 289.364 55.9201C286.753 54.7544 283.81 55.7785 282.1 58.0703L280.305 60.4748C280.071 60.7881 279.864 61.1205 279.686 61.4684L278.38 64.0154C276.961 66.784 277.539 70.1571 279.799 72.2948L285.566 77.7476C287.539 79.6142 290.415 80.1702 292.943 79.1737L296.718 77.6853C297.233 77.4821 297.723 77.2184 298.176 76.8997L300.892 74.9906Z" fill="#93C3E6"/>
<path d="M319.839 131.122C319.839 150.558 311.154 164.873 297.104 174.339C283.043 183.812 263.598 188.434 242.089 188.434C220.581 188.434 201.135 183.812 187.075 174.339C173.025 164.873 164.339 150.558 164.339 131.122C164.339 107.097 173.045 87.9249 187.106 74.7581C201.169 61.5892 220.606 54.4128 242.089 54.4128C263.576 54.4128 283.012 61.2782 297.074 74.2899C311.133 87.299 319.839 106.47 319.839 131.122Z" fill="white" stroke="black" stroke-width="0.5"/>
<path d="M319.524 132.163C319.524 169.898 284.48 186.424 246.045 188.119C207.562 188.119 178.468 168.531 178.468 130.796C178.468 84.2376 206.322 51.9019 247.176 54.728C288.03 57.5541 319.524 83.5541 319.524 132.163Z" fill="#F0F0F0"/>
<path d="M300.872 130.796C300.872 168.531 272.277 186.424 237.002 186.424C201.728 186.424 173.133 168.531 173.133 130.796C173.133 84.2376 201.728 56.4236 237.002 56.4236C272.277 56.4236 300.872 83.0283 300.872 130.796Z" fill="white"/>
<path d="M236.899 135.424C236.899 140.446 235.225 150.49 228.529 150.49" stroke="black" stroke-width="0.4"/>
<path d="M238.573 135.424C238.573 140.446 240.247 150.49 246.942 150.49" stroke="black" stroke-width="0.4"/>
<path d="M247.481 132.076C247.481 135.113 240.707 137.678 238.285 138.498C237.732 138.685 237.142 138.685 236.589 138.498C234.167 137.678 227.393 135.113 227.393 132.076C227.393 128.378 231.89 125.38 237.437 125.38C242.984 125.38 247.481 128.378 247.481 132.076Z" fill="#246CA5"/>
<path d="M216.586 119.781C216.586 139.614 216.267 151.38 203.649 151.38C191.03 151.38 180.47 139.614 180.47 119.781C180.47 99.9479 205.203 78.3667 218.742 87.772C232.282 97.1774 216.586 99.9479 216.586 119.781Z" fill="#246CA5"/>
<circle cx="201.493" cy="127.123" r="4.85146" fill="white"/>
<path d="M260.365 119.781C260.365 139.614 260.683 151.38 273.302 151.38C285.92 151.38 296.481 139.614 296.481 119.781C296.481 99.9479 271.748 78.3667 258.208 87.772C244.669 97.1774 260.365 99.9479 260.365 119.781Z" fill="#246CA5"/>
<circle cx="4.85146" cy="4.85146" r="4.85146" transform="matrix(-1 0 0 1 280.31 122.271)" fill="white"/>
</svg>
